G04 #@! TF.GenerationSoftware,KiCad,Pcbnew,5.1.5-1.fc30*
G04 #@! TF.CreationDate,2020-01-13T20:30:00-05:00*
G04 #@! TF.ProjectId,dot,646f742e-6b69-4636-9164-5f7063625858,rev?*
G04 #@! TF.SameCoordinates,Original*
G04 #@! TF.FileFunction,Soldermask,Bot*
G04 #@! TF.FilePolarity,Negative*
%FSLAX46Y46*%
G04 Gerber Fmt 4.6, Leading zero omitted, Abs format (unit mm)*
G04 Created by KiCad (PCBNEW 5.1.5-1.fc30) date 2020-01-13 20:30:00*
%MOMM*%
%LPD*%
G04 APERTURE LIST*
%ADD10C,0.100000*%
G04 APERTURE END LIST*
D10*
G36*
X141283512Y-118103927D02*
G01*
X141432812Y-118133624D01*
X141596784Y-118201544D01*
X141744354Y-118300147D01*
X141869853Y-118425646D01*
X141968456Y-118573216D01*
X142036376Y-118737188D01*
X142071000Y-118911259D01*
X142071000Y-119088741D01*
X142036376Y-119262812D01*
X141968456Y-119426784D01*
X141869853Y-119574354D01*
X141744354Y-119699853D01*
X141596784Y-119798456D01*
X141432812Y-119866376D01*
X141283512Y-119896073D01*
X141258742Y-119901000D01*
X141081258Y-119901000D01*
X141056488Y-119896073D01*
X140907188Y-119866376D01*
X140743216Y-119798456D01*
X140595646Y-119699853D01*
X140470147Y-119574354D01*
X140371544Y-119426784D01*
X140303624Y-119262812D01*
X140269000Y-119088741D01*
X140269000Y-118911259D01*
X140303624Y-118737188D01*
X140371544Y-118573216D01*
X140470147Y-118425646D01*
X140595646Y-118300147D01*
X140743216Y-118201544D01*
X140907188Y-118133624D01*
X141056488Y-118103927D01*
X141081258Y-118099000D01*
X141258742Y-118099000D01*
X141283512Y-118103927D01*
G37*
G36*
X107191000Y-119901000D02*
G01*
X105389000Y-119901000D01*
X105389000Y-118099000D01*
X107191000Y-118099000D01*
X107191000Y-119901000D01*
G37*
G36*
X77191000Y-119901000D02*
G01*
X75389000Y-119901000D01*
X75389000Y-118099000D01*
X77191000Y-118099000D01*
X77191000Y-119901000D01*
G37*
G36*
X73863512Y-118103927D02*
G01*
X74012812Y-118133624D01*
X74176784Y-118201544D01*
X74324354Y-118300147D01*
X74449853Y-118425646D01*
X74548456Y-118573216D01*
X74616376Y-118737188D01*
X74651000Y-118911259D01*
X74651000Y-119088741D01*
X74616376Y-119262812D01*
X74548456Y-119426784D01*
X74449853Y-119574354D01*
X74324354Y-119699853D01*
X74176784Y-119798456D01*
X74012812Y-119866376D01*
X73863512Y-119896073D01*
X73838742Y-119901000D01*
X73661258Y-119901000D01*
X73636488Y-119896073D01*
X73487188Y-119866376D01*
X73323216Y-119798456D01*
X73175646Y-119699853D01*
X73050147Y-119574354D01*
X72951544Y-119426784D01*
X72883624Y-119262812D01*
X72849000Y-119088741D01*
X72849000Y-118911259D01*
X72883624Y-118737188D01*
X72951544Y-118573216D01*
X73050147Y-118425646D01*
X73175646Y-118300147D01*
X73323216Y-118201544D01*
X73487188Y-118133624D01*
X73636488Y-118103927D01*
X73661258Y-118099000D01*
X73838742Y-118099000D01*
X73863512Y-118103927D01*
G37*
G36*
X71323512Y-118103927D02*
G01*
X71472812Y-118133624D01*
X71636784Y-118201544D01*
X71784354Y-118300147D01*
X71909853Y-118425646D01*
X72008456Y-118573216D01*
X72076376Y-118737188D01*
X72111000Y-118911259D01*
X72111000Y-119088741D01*
X72076376Y-119262812D01*
X72008456Y-119426784D01*
X71909853Y-119574354D01*
X71784354Y-119699853D01*
X71636784Y-119798456D01*
X71472812Y-119866376D01*
X71323512Y-119896073D01*
X71298742Y-119901000D01*
X71121258Y-119901000D01*
X71096488Y-119896073D01*
X70947188Y-119866376D01*
X70783216Y-119798456D01*
X70635646Y-119699853D01*
X70510147Y-119574354D01*
X70411544Y-119426784D01*
X70343624Y-119262812D01*
X70309000Y-119088741D01*
X70309000Y-118911259D01*
X70343624Y-118737188D01*
X70411544Y-118573216D01*
X70510147Y-118425646D01*
X70635646Y-118300147D01*
X70783216Y-118201544D01*
X70947188Y-118133624D01*
X71096488Y-118103927D01*
X71121258Y-118099000D01*
X71298742Y-118099000D01*
X71323512Y-118103927D01*
G37*
G36*
X81323512Y-118103927D02*
G01*
X81472812Y-118133624D01*
X81636784Y-118201544D01*
X81784354Y-118300147D01*
X81909853Y-118425646D01*
X82008456Y-118573216D01*
X82076376Y-118737188D01*
X82111000Y-118911259D01*
X82111000Y-119088741D01*
X82076376Y-119262812D01*
X82008456Y-119426784D01*
X81909853Y-119574354D01*
X81784354Y-119699853D01*
X81636784Y-119798456D01*
X81472812Y-119866376D01*
X81323512Y-119896073D01*
X81298742Y-119901000D01*
X81121258Y-119901000D01*
X81096488Y-119896073D01*
X80947188Y-119866376D01*
X80783216Y-119798456D01*
X80635646Y-119699853D01*
X80510147Y-119574354D01*
X80411544Y-119426784D01*
X80343624Y-119262812D01*
X80309000Y-119088741D01*
X80309000Y-118911259D01*
X80343624Y-118737188D01*
X80411544Y-118573216D01*
X80510147Y-118425646D01*
X80635646Y-118300147D01*
X80783216Y-118201544D01*
X80947188Y-118133624D01*
X81096488Y-118103927D01*
X81121258Y-118099000D01*
X81298742Y-118099000D01*
X81323512Y-118103927D01*
G37*
G36*
X83863512Y-118103927D02*
G01*
X84012812Y-118133624D01*
X84176784Y-118201544D01*
X84324354Y-118300147D01*
X84449853Y-118425646D01*
X84548456Y-118573216D01*
X84616376Y-118737188D01*
X84651000Y-118911259D01*
X84651000Y-119088741D01*
X84616376Y-119262812D01*
X84548456Y-119426784D01*
X84449853Y-119574354D01*
X84324354Y-119699853D01*
X84176784Y-119798456D01*
X84012812Y-119866376D01*
X83863512Y-119896073D01*
X83838742Y-119901000D01*
X83661258Y-119901000D01*
X83636488Y-119896073D01*
X83487188Y-119866376D01*
X83323216Y-119798456D01*
X83175646Y-119699853D01*
X83050147Y-119574354D01*
X82951544Y-119426784D01*
X82883624Y-119262812D01*
X82849000Y-119088741D01*
X82849000Y-118911259D01*
X82883624Y-118737188D01*
X82951544Y-118573216D01*
X83050147Y-118425646D01*
X83175646Y-118300147D01*
X83323216Y-118201544D01*
X83487188Y-118133624D01*
X83636488Y-118103927D01*
X83661258Y-118099000D01*
X83838742Y-118099000D01*
X83863512Y-118103927D01*
G37*
G36*
X87191000Y-119901000D02*
G01*
X85389000Y-119901000D01*
X85389000Y-118099000D01*
X87191000Y-118099000D01*
X87191000Y-119901000D01*
G37*
G36*
X97191000Y-119901000D02*
G01*
X95389000Y-119901000D01*
X95389000Y-118099000D01*
X97191000Y-118099000D01*
X97191000Y-119901000D01*
G37*
G36*
X93863512Y-118103927D02*
G01*
X94012812Y-118133624D01*
X94176784Y-118201544D01*
X94324354Y-118300147D01*
X94449853Y-118425646D01*
X94548456Y-118573216D01*
X94616376Y-118737188D01*
X94651000Y-118911259D01*
X94651000Y-119088741D01*
X94616376Y-119262812D01*
X94548456Y-119426784D01*
X94449853Y-119574354D01*
X94324354Y-119699853D01*
X94176784Y-119798456D01*
X94012812Y-119866376D01*
X93863512Y-119896073D01*
X93838742Y-119901000D01*
X93661258Y-119901000D01*
X93636488Y-119896073D01*
X93487188Y-119866376D01*
X93323216Y-119798456D01*
X93175646Y-119699853D01*
X93050147Y-119574354D01*
X92951544Y-119426784D01*
X92883624Y-119262812D01*
X92849000Y-119088741D01*
X92849000Y-118911259D01*
X92883624Y-118737188D01*
X92951544Y-118573216D01*
X93050147Y-118425646D01*
X93175646Y-118300147D01*
X93323216Y-118201544D01*
X93487188Y-118133624D01*
X93636488Y-118103927D01*
X93661258Y-118099000D01*
X93838742Y-118099000D01*
X93863512Y-118103927D01*
G37*
G36*
X91323512Y-118103927D02*
G01*
X91472812Y-118133624D01*
X91636784Y-118201544D01*
X91784354Y-118300147D01*
X91909853Y-118425646D01*
X92008456Y-118573216D01*
X92076376Y-118737188D01*
X92111000Y-118911259D01*
X92111000Y-119088741D01*
X92076376Y-119262812D01*
X92008456Y-119426784D01*
X91909853Y-119574354D01*
X91784354Y-119699853D01*
X91636784Y-119798456D01*
X91472812Y-119866376D01*
X91323512Y-119896073D01*
X91298742Y-119901000D01*
X91121258Y-119901000D01*
X91096488Y-119896073D01*
X90947188Y-119866376D01*
X90783216Y-119798456D01*
X90635646Y-119699853D01*
X90510147Y-119574354D01*
X90411544Y-119426784D01*
X90343624Y-119262812D01*
X90309000Y-119088741D01*
X90309000Y-118911259D01*
X90343624Y-118737188D01*
X90411544Y-118573216D01*
X90510147Y-118425646D01*
X90635646Y-118300147D01*
X90783216Y-118201544D01*
X90947188Y-118133624D01*
X91096488Y-118103927D01*
X91121258Y-118099000D01*
X91298742Y-118099000D01*
X91323512Y-118103927D01*
G37*
G36*
X101323512Y-118103927D02*
G01*
X101472812Y-118133624D01*
X101636784Y-118201544D01*
X101784354Y-118300147D01*
X101909853Y-118425646D01*
X102008456Y-118573216D01*
X102076376Y-118737188D01*
X102111000Y-118911259D01*
X102111000Y-119088741D01*
X102076376Y-119262812D01*
X102008456Y-119426784D01*
X101909853Y-119574354D01*
X101784354Y-119699853D01*
X101636784Y-119798456D01*
X101472812Y-119866376D01*
X101323512Y-119896073D01*
X101298742Y-119901000D01*
X101121258Y-119901000D01*
X101096488Y-119896073D01*
X100947188Y-119866376D01*
X100783216Y-119798456D01*
X100635646Y-119699853D01*
X100510147Y-119574354D01*
X100411544Y-119426784D01*
X100343624Y-119262812D01*
X100309000Y-119088741D01*
X100309000Y-118911259D01*
X100343624Y-118737188D01*
X100411544Y-118573216D01*
X100510147Y-118425646D01*
X100635646Y-118300147D01*
X100783216Y-118201544D01*
X100947188Y-118133624D01*
X101096488Y-118103927D01*
X101121258Y-118099000D01*
X101298742Y-118099000D01*
X101323512Y-118103927D01*
G37*
G36*
X103863512Y-118103927D02*
G01*
X104012812Y-118133624D01*
X104176784Y-118201544D01*
X104324354Y-118300147D01*
X104449853Y-118425646D01*
X104548456Y-118573216D01*
X104616376Y-118737188D01*
X104651000Y-118911259D01*
X104651000Y-119088741D01*
X104616376Y-119262812D01*
X104548456Y-119426784D01*
X104449853Y-119574354D01*
X104324354Y-119699853D01*
X104176784Y-119798456D01*
X104012812Y-119866376D01*
X103863512Y-119896073D01*
X103838742Y-119901000D01*
X103661258Y-119901000D01*
X103636488Y-119896073D01*
X103487188Y-119866376D01*
X103323216Y-119798456D01*
X103175646Y-119699853D01*
X103050147Y-119574354D01*
X102951544Y-119426784D01*
X102883624Y-119262812D01*
X102849000Y-119088741D01*
X102849000Y-118911259D01*
X102883624Y-118737188D01*
X102951544Y-118573216D01*
X103050147Y-118425646D01*
X103175646Y-118300147D01*
X103323216Y-118201544D01*
X103487188Y-118133624D01*
X103636488Y-118103927D01*
X103661258Y-118099000D01*
X103838742Y-118099000D01*
X103863512Y-118103927D01*
G37*
G36*
X113863512Y-118103927D02*
G01*
X114012812Y-118133624D01*
X114176784Y-118201544D01*
X114324354Y-118300147D01*
X114449853Y-118425646D01*
X114548456Y-118573216D01*
X114616376Y-118737188D01*
X114651000Y-118911259D01*
X114651000Y-119088741D01*
X114616376Y-119262812D01*
X114548456Y-119426784D01*
X114449853Y-119574354D01*
X114324354Y-119699853D01*
X114176784Y-119798456D01*
X114012812Y-119866376D01*
X113863512Y-119896073D01*
X113838742Y-119901000D01*
X113661258Y-119901000D01*
X113636488Y-119896073D01*
X113487188Y-119866376D01*
X113323216Y-119798456D01*
X113175646Y-119699853D01*
X113050147Y-119574354D01*
X112951544Y-119426784D01*
X112883624Y-119262812D01*
X112849000Y-119088741D01*
X112849000Y-118911259D01*
X112883624Y-118737188D01*
X112951544Y-118573216D01*
X113050147Y-118425646D01*
X113175646Y-118300147D01*
X113323216Y-118201544D01*
X113487188Y-118133624D01*
X113636488Y-118103927D01*
X113661258Y-118099000D01*
X113838742Y-118099000D01*
X113863512Y-118103927D01*
G37*
G36*
X117191000Y-119901000D02*
G01*
X115389000Y-119901000D01*
X115389000Y-118099000D01*
X117191000Y-118099000D01*
X117191000Y-119901000D01*
G37*
G36*
X127151000Y-119901000D02*
G01*
X125349000Y-119901000D01*
X125349000Y-118099000D01*
X127151000Y-118099000D01*
X127151000Y-119901000D01*
G37*
G36*
X123823512Y-118103927D02*
G01*
X123972812Y-118133624D01*
X124136784Y-118201544D01*
X124284354Y-118300147D01*
X124409853Y-118425646D01*
X124508456Y-118573216D01*
X124576376Y-118737188D01*
X124611000Y-118911259D01*
X124611000Y-119088741D01*
X124576376Y-119262812D01*
X124508456Y-119426784D01*
X124409853Y-119574354D01*
X124284354Y-119699853D01*
X124136784Y-119798456D01*
X123972812Y-119866376D01*
X123823512Y-119896073D01*
X123798742Y-119901000D01*
X123621258Y-119901000D01*
X123596488Y-119896073D01*
X123447188Y-119866376D01*
X123283216Y-119798456D01*
X123135646Y-119699853D01*
X123010147Y-119574354D01*
X122911544Y-119426784D01*
X122843624Y-119262812D01*
X122809000Y-119088741D01*
X122809000Y-118911259D01*
X122843624Y-118737188D01*
X122911544Y-118573216D01*
X123010147Y-118425646D01*
X123135646Y-118300147D01*
X123283216Y-118201544D01*
X123447188Y-118133624D01*
X123596488Y-118103927D01*
X123621258Y-118099000D01*
X123798742Y-118099000D01*
X123823512Y-118103927D01*
G37*
G36*
X121283512Y-118103927D02*
G01*
X121432812Y-118133624D01*
X121596784Y-118201544D01*
X121744354Y-118300147D01*
X121869853Y-118425646D01*
X121968456Y-118573216D01*
X122036376Y-118737188D01*
X122071000Y-118911259D01*
X122071000Y-119088741D01*
X122036376Y-119262812D01*
X121968456Y-119426784D01*
X121869853Y-119574354D01*
X121744354Y-119699853D01*
X121596784Y-119798456D01*
X121432812Y-119866376D01*
X121283512Y-119896073D01*
X121258742Y-119901000D01*
X121081258Y-119901000D01*
X121056488Y-119896073D01*
X120907188Y-119866376D01*
X120743216Y-119798456D01*
X120595646Y-119699853D01*
X120470147Y-119574354D01*
X120371544Y-119426784D01*
X120303624Y-119262812D01*
X120269000Y-119088741D01*
X120269000Y-118911259D01*
X120303624Y-118737188D01*
X120371544Y-118573216D01*
X120470147Y-118425646D01*
X120595646Y-118300147D01*
X120743216Y-118201544D01*
X120907188Y-118133624D01*
X121056488Y-118103927D01*
X121081258Y-118099000D01*
X121258742Y-118099000D01*
X121283512Y-118103927D01*
G37*
G36*
X131283512Y-118103927D02*
G01*
X131432812Y-118133624D01*
X131596784Y-118201544D01*
X131744354Y-118300147D01*
X131869853Y-118425646D01*
X131968456Y-118573216D01*
X132036376Y-118737188D01*
X132071000Y-118911259D01*
X132071000Y-119088741D01*
X132036376Y-119262812D01*
X131968456Y-119426784D01*
X131869853Y-119574354D01*
X131744354Y-119699853D01*
X131596784Y-119798456D01*
X131432812Y-119866376D01*
X131283512Y-119896073D01*
X131258742Y-119901000D01*
X131081258Y-119901000D01*
X131056488Y-119896073D01*
X130907188Y-119866376D01*
X130743216Y-119798456D01*
X130595646Y-119699853D01*
X130470147Y-119574354D01*
X130371544Y-119426784D01*
X130303624Y-119262812D01*
X130269000Y-119088741D01*
X130269000Y-118911259D01*
X130303624Y-118737188D01*
X130371544Y-118573216D01*
X130470147Y-118425646D01*
X130595646Y-118300147D01*
X130743216Y-118201544D01*
X130907188Y-118133624D01*
X131056488Y-118103927D01*
X131081258Y-118099000D01*
X131258742Y-118099000D01*
X131283512Y-118103927D01*
G37*
G36*
X133823512Y-118103927D02*
G01*
X133972812Y-118133624D01*
X134136784Y-118201544D01*
X134284354Y-118300147D01*
X134409853Y-118425646D01*
X134508456Y-118573216D01*
X134576376Y-118737188D01*
X134611000Y-118911259D01*
X134611000Y-119088741D01*
X134576376Y-119262812D01*
X134508456Y-119426784D01*
X134409853Y-119574354D01*
X134284354Y-119699853D01*
X134136784Y-119798456D01*
X133972812Y-119866376D01*
X133823512Y-119896073D01*
X133798742Y-119901000D01*
X133621258Y-119901000D01*
X133596488Y-119896073D01*
X133447188Y-119866376D01*
X133283216Y-119798456D01*
X133135646Y-119699853D01*
X133010147Y-119574354D01*
X132911544Y-119426784D01*
X132843624Y-119262812D01*
X132809000Y-119088741D01*
X132809000Y-118911259D01*
X132843624Y-118737188D01*
X132911544Y-118573216D01*
X133010147Y-118425646D01*
X133135646Y-118300147D01*
X133283216Y-118201544D01*
X133447188Y-118133624D01*
X133596488Y-118103927D01*
X133621258Y-118099000D01*
X133798742Y-118099000D01*
X133823512Y-118103927D01*
G37*
G36*
X137151000Y-119901000D02*
G01*
X135349000Y-119901000D01*
X135349000Y-118099000D01*
X137151000Y-118099000D01*
X137151000Y-119901000D01*
G37*
G36*
X147151000Y-119901000D02*
G01*
X145349000Y-119901000D01*
X145349000Y-118099000D01*
X147151000Y-118099000D01*
X147151000Y-119901000D01*
G37*
G36*
X143823512Y-118103927D02*
G01*
X143972812Y-118133624D01*
X144136784Y-118201544D01*
X144284354Y-118300147D01*
X144409853Y-118425646D01*
X144508456Y-118573216D01*
X144576376Y-118737188D01*
X144611000Y-118911259D01*
X144611000Y-119088741D01*
X144576376Y-119262812D01*
X144508456Y-119426784D01*
X144409853Y-119574354D01*
X144284354Y-119699853D01*
X144136784Y-119798456D01*
X143972812Y-119866376D01*
X143823512Y-119896073D01*
X143798742Y-119901000D01*
X143621258Y-119901000D01*
X143596488Y-119896073D01*
X143447188Y-119866376D01*
X143283216Y-119798456D01*
X143135646Y-119699853D01*
X143010147Y-119574354D01*
X142911544Y-119426784D01*
X142843624Y-119262812D01*
X142809000Y-119088741D01*
X142809000Y-118911259D01*
X142843624Y-118737188D01*
X142911544Y-118573216D01*
X143010147Y-118425646D01*
X143135646Y-118300147D01*
X143283216Y-118201544D01*
X143447188Y-118133624D01*
X143596488Y-118103927D01*
X143621258Y-118099000D01*
X143798742Y-118099000D01*
X143823512Y-118103927D01*
G37*
G36*
X111323512Y-118103927D02*
G01*
X111472812Y-118133624D01*
X111636784Y-118201544D01*
X111784354Y-118300147D01*
X111909853Y-118425646D01*
X112008456Y-118573216D01*
X112076376Y-118737188D01*
X112111000Y-118911259D01*
X112111000Y-119088741D01*
X112076376Y-119262812D01*
X112008456Y-119426784D01*
X111909853Y-119574354D01*
X111784354Y-119699853D01*
X111636784Y-119798456D01*
X111472812Y-119866376D01*
X111323512Y-119896073D01*
X111298742Y-119901000D01*
X111121258Y-119901000D01*
X111096488Y-119896073D01*
X110947188Y-119866376D01*
X110783216Y-119798456D01*
X110635646Y-119699853D01*
X110510147Y-119574354D01*
X110411544Y-119426784D01*
X110343624Y-119262812D01*
X110309000Y-119088741D01*
X110309000Y-118911259D01*
X110343624Y-118737188D01*
X110411544Y-118573216D01*
X110510147Y-118425646D01*
X110635646Y-118300147D01*
X110783216Y-118201544D01*
X110947188Y-118133624D01*
X111096488Y-118103927D01*
X111121258Y-118099000D01*
X111298742Y-118099000D01*
X111323512Y-118103927D01*
G37*
G36*
X91379487Y-109748996D02*
G01*
X91616253Y-109847068D01*
X91616255Y-109847069D01*
X91829339Y-109989447D01*
X92010553Y-110170661D01*
X92152932Y-110383747D01*
X92251004Y-110620513D01*
X92301000Y-110871861D01*
X92301000Y-111128139D01*
X92251004Y-111379487D01*
X92152932Y-111616253D01*
X92152931Y-111616255D01*
X92010553Y-111829339D01*
X91829339Y-112010553D01*
X91616255Y-112152931D01*
X91616254Y-112152932D01*
X91616253Y-112152932D01*
X91379487Y-112251004D01*
X91128139Y-112301000D01*
X90871861Y-112301000D01*
X90620513Y-112251004D01*
X90383747Y-112152932D01*
X90383746Y-112152932D01*
X90383745Y-112152931D01*
X90170661Y-112010553D01*
X89989447Y-111829339D01*
X89847069Y-111616255D01*
X89847068Y-111616253D01*
X89748996Y-111379487D01*
X89699000Y-111128139D01*
X89699000Y-110871861D01*
X89748996Y-110620513D01*
X89847068Y-110383747D01*
X89989447Y-110170661D01*
X90170661Y-109989447D01*
X90383745Y-109847069D01*
X90383747Y-109847068D01*
X90620513Y-109748996D01*
X90871861Y-109699000D01*
X91128139Y-109699000D01*
X91379487Y-109748996D01*
G37*
G36*
X97653512Y-101603927D02*
G01*
X97802812Y-101633624D01*
X97966784Y-101701544D01*
X98114354Y-101800147D01*
X98239853Y-101925646D01*
X98338456Y-102073216D01*
X98406376Y-102237188D01*
X98441000Y-102411259D01*
X98441000Y-102588741D01*
X98406376Y-102762812D01*
X98338456Y-102926784D01*
X98239853Y-103074354D01*
X98114354Y-103199853D01*
X97966784Y-103298456D01*
X97802812Y-103366376D01*
X97653512Y-103396073D01*
X97628742Y-103401000D01*
X97451258Y-103401000D01*
X97426488Y-103396073D01*
X97277188Y-103366376D01*
X97113216Y-103298456D01*
X96965646Y-103199853D01*
X96840147Y-103074354D01*
X96741544Y-102926784D01*
X96673624Y-102762812D01*
X96639000Y-102588741D01*
X96639000Y-102411259D01*
X96673624Y-102237188D01*
X96741544Y-102073216D01*
X96840147Y-101925646D01*
X96965646Y-101800147D01*
X97113216Y-101701544D01*
X97277188Y-101633624D01*
X97426488Y-101603927D01*
X97451258Y-101599000D01*
X97628742Y-101599000D01*
X97653512Y-101603927D01*
G37*
G36*
X105273512Y-101603927D02*
G01*
X105422812Y-101633624D01*
X105586784Y-101701544D01*
X105734354Y-101800147D01*
X105859853Y-101925646D01*
X105958456Y-102073216D01*
X106026376Y-102237188D01*
X106061000Y-102411259D01*
X106061000Y-102588741D01*
X106026376Y-102762812D01*
X105958456Y-102926784D01*
X105859853Y-103074354D01*
X105734354Y-103199853D01*
X105586784Y-103298456D01*
X105422812Y-103366376D01*
X105273512Y-103396073D01*
X105248742Y-103401000D01*
X105071258Y-103401000D01*
X105046488Y-103396073D01*
X104897188Y-103366376D01*
X104733216Y-103298456D01*
X104585646Y-103199853D01*
X104460147Y-103074354D01*
X104361544Y-102926784D01*
X104293624Y-102762812D01*
X104259000Y-102588741D01*
X104259000Y-102411259D01*
X104293624Y-102237188D01*
X104361544Y-102073216D01*
X104460147Y-101925646D01*
X104585646Y-101800147D01*
X104733216Y-101701544D01*
X104897188Y-101633624D01*
X105046488Y-101603927D01*
X105071258Y-101599000D01*
X105248742Y-101599000D01*
X105273512Y-101603927D01*
G37*
G36*
X100193512Y-101603927D02*
G01*
X100342812Y-101633624D01*
X100506784Y-101701544D01*
X100654354Y-101800147D01*
X100779853Y-101925646D01*
X100878456Y-102073216D01*
X100946376Y-102237188D01*
X100981000Y-102411259D01*
X100981000Y-102588741D01*
X100946376Y-102762812D01*
X100878456Y-102926784D01*
X100779853Y-103074354D01*
X100654354Y-103199853D01*
X100506784Y-103298456D01*
X100342812Y-103366376D01*
X100193512Y-103396073D01*
X100168742Y-103401000D01*
X99991258Y-103401000D01*
X99966488Y-103396073D01*
X99817188Y-103366376D01*
X99653216Y-103298456D01*
X99505646Y-103199853D01*
X99380147Y-103074354D01*
X99281544Y-102926784D01*
X99213624Y-102762812D01*
X99179000Y-102588741D01*
X99179000Y-102411259D01*
X99213624Y-102237188D01*
X99281544Y-102073216D01*
X99380147Y-101925646D01*
X99505646Y-101800147D01*
X99653216Y-101701544D01*
X99817188Y-101633624D01*
X99966488Y-101603927D01*
X99991258Y-101599000D01*
X100168742Y-101599000D01*
X100193512Y-101603927D01*
G37*
G36*
X95901000Y-103401000D02*
G01*
X94099000Y-103401000D01*
X94099000Y-101599000D01*
X95901000Y-101599000D01*
X95901000Y-103401000D01*
G37*
G36*
X102733512Y-101603927D02*
G01*
X102882812Y-101633624D01*
X103046784Y-101701544D01*
X103194354Y-101800147D01*
X103319853Y-101925646D01*
X103418456Y-102073216D01*
X103486376Y-102237188D01*
X103521000Y-102411259D01*
X103521000Y-102588741D01*
X103486376Y-102762812D01*
X103418456Y-102926784D01*
X103319853Y-103074354D01*
X103194354Y-103199853D01*
X103046784Y-103298456D01*
X102882812Y-103366376D01*
X102733512Y-103396073D01*
X102708742Y-103401000D01*
X102531258Y-103401000D01*
X102506488Y-103396073D01*
X102357188Y-103366376D01*
X102193216Y-103298456D01*
X102045646Y-103199853D01*
X101920147Y-103074354D01*
X101821544Y-102926784D01*
X101753624Y-102762812D01*
X101719000Y-102588741D01*
X101719000Y-102411259D01*
X101753624Y-102237188D01*
X101821544Y-102073216D01*
X101920147Y-101925646D01*
X102045646Y-101800147D01*
X102193216Y-101701544D01*
X102357188Y-101633624D01*
X102506488Y-101603927D01*
X102531258Y-101599000D01*
X102708742Y-101599000D01*
X102733512Y-101603927D01*
G37*
G36*
X58681125Y-95586689D02*
G01*
X58820324Y-95614377D01*
X58928949Y-95659371D01*
X59082568Y-95723002D01*
X59318583Y-95880702D01*
X59519298Y-96081417D01*
X59676998Y-96317432D01*
X59785623Y-96579677D01*
X59841000Y-96858073D01*
X59841000Y-97141927D01*
X59785623Y-97420323D01*
X59676998Y-97682568D01*
X59519298Y-97918583D01*
X59318583Y-98119298D01*
X59082568Y-98276998D01*
X58928949Y-98340629D01*
X58820324Y-98385623D01*
X58681125Y-98413311D01*
X58541927Y-98441000D01*
X58258073Y-98441000D01*
X58118875Y-98413311D01*
X57979676Y-98385623D01*
X57871051Y-98340629D01*
X57717432Y-98276998D01*
X57481417Y-98119298D01*
X57280702Y-97918583D01*
X57123002Y-97682568D01*
X57014377Y-97420323D01*
X56959000Y-97141927D01*
X56959000Y-96858073D01*
X57014377Y-96579677D01*
X57123002Y-96317432D01*
X57280702Y-96081417D01*
X57481417Y-95880702D01*
X57717432Y-95723002D01*
X57871051Y-95659371D01*
X57979676Y-95614377D01*
X58118875Y-95586689D01*
X58258073Y-95559000D01*
X58541927Y-95559000D01*
X58681125Y-95586689D01*
G37*
G36*
X55281125Y-95586689D02*
G01*
X55420324Y-95614377D01*
X55528949Y-95659371D01*
X55682568Y-95723002D01*
X55918583Y-95880702D01*
X56119298Y-96081417D01*
X56276998Y-96317432D01*
X56385623Y-96579677D01*
X56441000Y-96858073D01*
X56441000Y-97141927D01*
X56385623Y-97420323D01*
X56276998Y-97682568D01*
X56119298Y-97918583D01*
X55918583Y-98119298D01*
X55682568Y-98276998D01*
X55528949Y-98340629D01*
X55420324Y-98385623D01*
X55281125Y-98413311D01*
X55141927Y-98441000D01*
X54858073Y-98441000D01*
X54718875Y-98413311D01*
X54579676Y-98385623D01*
X54471051Y-98340629D01*
X54317432Y-98276998D01*
X54081417Y-98119298D01*
X53880702Y-97918583D01*
X53723002Y-97682568D01*
X53614377Y-97420323D01*
X53559000Y-97141927D01*
X53559000Y-96858073D01*
X53614377Y-96579677D01*
X53723002Y-96317432D01*
X53880702Y-96081417D01*
X54081417Y-95880702D01*
X54317432Y-95723002D01*
X54471051Y-95659371D01*
X54579676Y-95614377D01*
X54718875Y-95586689D01*
X54858073Y-95559000D01*
X55141927Y-95559000D01*
X55281125Y-95586689D01*
G37*
G36*
X55281125Y-85666689D02*
G01*
X55420324Y-85694377D01*
X55528949Y-85739371D01*
X55682568Y-85803002D01*
X55918583Y-85960702D01*
X56119298Y-86161417D01*
X56276998Y-86397432D01*
X56385623Y-86659677D01*
X56441000Y-86938073D01*
X56441000Y-87221927D01*
X56385623Y-87500323D01*
X56276998Y-87762568D01*
X56119298Y-87998583D01*
X55918583Y-88199298D01*
X55682568Y-88356998D01*
X55528949Y-88420629D01*
X55420324Y-88465623D01*
X55281125Y-88493312D01*
X55141927Y-88521000D01*
X54858073Y-88521000D01*
X54718875Y-88493312D01*
X54579676Y-88465623D01*
X54471051Y-88420629D01*
X54317432Y-88356998D01*
X54081417Y-88199298D01*
X53880702Y-87998583D01*
X53723002Y-87762568D01*
X53614377Y-87500323D01*
X53559000Y-87221927D01*
X53559000Y-86938073D01*
X53614377Y-86659677D01*
X53723002Y-86397432D01*
X53880702Y-86161417D01*
X54081417Y-85960702D01*
X54317432Y-85803002D01*
X54471051Y-85739371D01*
X54579676Y-85694377D01*
X54718875Y-85666689D01*
X54858073Y-85639000D01*
X55141927Y-85639000D01*
X55281125Y-85666689D01*
G37*
G36*
X58681125Y-85666689D02*
G01*
X58820324Y-85694377D01*
X58928949Y-85739371D01*
X59082568Y-85803002D01*
X59318583Y-85960702D01*
X59519298Y-86161417D01*
X59676998Y-86397432D01*
X59785623Y-86659677D01*
X59841000Y-86938073D01*
X59841000Y-87221927D01*
X59785623Y-87500323D01*
X59676998Y-87762568D01*
X59519298Y-87998583D01*
X59318583Y-88199298D01*
X59082568Y-88356998D01*
X58928949Y-88420629D01*
X58820324Y-88465623D01*
X58681125Y-88493312D01*
X58541927Y-88521000D01*
X58258073Y-88521000D01*
X58118875Y-88493312D01*
X57979676Y-88465623D01*
X57871051Y-88420629D01*
X57717432Y-88356998D01*
X57481417Y-88199298D01*
X57280702Y-87998583D01*
X57123002Y-87762568D01*
X57014377Y-87500323D01*
X56959000Y-87221927D01*
X56959000Y-86938073D01*
X57014377Y-86659677D01*
X57123002Y-86397432D01*
X57280702Y-86161417D01*
X57481417Y-85960702D01*
X57717432Y-85803002D01*
X57871051Y-85739371D01*
X57979676Y-85694377D01*
X58118875Y-85666689D01*
X58258073Y-85639000D01*
X58541927Y-85639000D01*
X58681125Y-85666689D01*
G37*
G36*
X56502585Y-78538802D02*
G01*
X56652410Y-78568604D01*
X56934674Y-78685521D01*
X57188705Y-78855259D01*
X57404741Y-79071295D01*
X57574479Y-79325326D01*
X57691396Y-79607590D01*
X57751000Y-79907240D01*
X57751000Y-80212760D01*
X57691396Y-80512410D01*
X57574479Y-80794674D01*
X57404741Y-81048705D01*
X57188705Y-81264741D01*
X56934674Y-81434479D01*
X56652410Y-81551396D01*
X56502585Y-81581198D01*
X56352761Y-81611000D01*
X56047239Y-81611000D01*
X55897415Y-81581198D01*
X55747590Y-81551396D01*
X55465326Y-81434479D01*
X55211295Y-81264741D01*
X54995259Y-81048705D01*
X54825521Y-80794674D01*
X54708604Y-80512410D01*
X54649000Y-80212760D01*
X54649000Y-79907240D01*
X54708604Y-79607590D01*
X54825521Y-79325326D01*
X54995259Y-79071295D01*
X55211295Y-78855259D01*
X55465326Y-78685521D01*
X55747590Y-78568604D01*
X55897415Y-78538802D01*
X56047239Y-78509000D01*
X56352761Y-78509000D01*
X56502585Y-78538802D01*
G37*
G36*
X56502585Y-73458802D02*
G01*
X56652410Y-73488604D01*
X56934674Y-73605521D01*
X57188705Y-73775259D01*
X57404741Y-73991295D01*
X57574479Y-74245326D01*
X57691396Y-74527590D01*
X57751000Y-74827240D01*
X57751000Y-75132760D01*
X57691396Y-75432410D01*
X57574479Y-75714674D01*
X57404741Y-75968705D01*
X57188705Y-76184741D01*
X56934674Y-76354479D01*
X56652410Y-76471396D01*
X56502585Y-76501198D01*
X56352761Y-76531000D01*
X56047239Y-76531000D01*
X55897415Y-76501198D01*
X55747590Y-76471396D01*
X55465326Y-76354479D01*
X55211295Y-76184741D01*
X54995259Y-75968705D01*
X54825521Y-75714674D01*
X54708604Y-75432410D01*
X54649000Y-75132760D01*
X54649000Y-74827240D01*
X54708604Y-74527590D01*
X54825521Y-74245326D01*
X54995259Y-73991295D01*
X55211295Y-73775259D01*
X55465326Y-73605521D01*
X55747590Y-73488604D01*
X55897415Y-73458802D01*
X56047239Y-73429000D01*
X56352761Y-73429000D01*
X56502585Y-73458802D01*
G37*
G36*
X56488368Y-68375974D02*
G01*
X56652410Y-68408604D01*
X56934674Y-68525521D01*
X57188705Y-68695259D01*
X57404741Y-68911295D01*
X57574479Y-69165326D01*
X57691396Y-69447590D01*
X57751000Y-69747240D01*
X57751000Y-70052760D01*
X57691396Y-70352410D01*
X57574479Y-70634674D01*
X57404741Y-70888705D01*
X57188705Y-71104741D01*
X56934674Y-71274479D01*
X56652410Y-71391396D01*
X56502585Y-71421198D01*
X56352761Y-71451000D01*
X56047239Y-71451000D01*
X55897415Y-71421198D01*
X55747590Y-71391396D01*
X55465326Y-71274479D01*
X55211295Y-71104741D01*
X54995259Y-70888705D01*
X54825521Y-70634674D01*
X54708604Y-70352410D01*
X54649000Y-70052760D01*
X54649000Y-69747240D01*
X54708604Y-69447590D01*
X54825521Y-69165326D01*
X54995259Y-68911295D01*
X55211295Y-68695259D01*
X55465326Y-68525521D01*
X55747590Y-68408604D01*
X55911632Y-68375974D01*
X56047239Y-68349000D01*
X56352761Y-68349000D01*
X56488368Y-68375974D01*
G37*
G36*
X79128231Y-67856705D02*
G01*
X79166967Y-67864410D01*
X79197195Y-67876931D01*
X79239944Y-67894638D01*
X79305622Y-67938523D01*
X79361478Y-67994379D01*
X79371067Y-68008730D01*
X79386613Y-68027672D01*
X79405555Y-68043217D01*
X79427165Y-68054768D01*
X79450614Y-68061881D01*
X79475001Y-68064283D01*
X79499387Y-68061881D01*
X79522836Y-68054768D01*
X79544446Y-68043217D01*
X79563388Y-68027671D01*
X79578933Y-68008730D01*
X79588522Y-67994379D01*
X79644378Y-67938523D01*
X79710056Y-67894638D01*
X79752805Y-67876931D01*
X79783033Y-67864410D01*
X79821769Y-67856705D01*
X79860504Y-67849000D01*
X79939496Y-67849000D01*
X79978231Y-67856705D01*
X80016967Y-67864410D01*
X80047195Y-67876931D01*
X80089944Y-67894638D01*
X80155622Y-67938523D01*
X80211478Y-67994379D01*
X80221067Y-68008730D01*
X80236613Y-68027672D01*
X80255555Y-68043217D01*
X80277165Y-68054768D01*
X80300614Y-68061881D01*
X80325001Y-68064283D01*
X80349387Y-68061881D01*
X80372836Y-68054768D01*
X80394446Y-68043217D01*
X80413388Y-68027671D01*
X80428933Y-68008730D01*
X80438522Y-67994379D01*
X80494378Y-67938523D01*
X80560056Y-67894638D01*
X80602805Y-67876931D01*
X80633033Y-67864410D01*
X80671769Y-67856705D01*
X80710504Y-67849000D01*
X80789496Y-67849000D01*
X80828231Y-67856705D01*
X80866967Y-67864410D01*
X80897195Y-67876931D01*
X80939944Y-67894638D01*
X81005622Y-67938523D01*
X81061478Y-67994379D01*
X81071067Y-68008730D01*
X81086613Y-68027672D01*
X81105555Y-68043217D01*
X81127165Y-68054768D01*
X81150614Y-68061881D01*
X81175001Y-68064283D01*
X81199387Y-68061881D01*
X81222836Y-68054768D01*
X81244446Y-68043217D01*
X81263388Y-68027671D01*
X81278933Y-68008730D01*
X81288522Y-67994379D01*
X81344378Y-67938523D01*
X81410056Y-67894638D01*
X81452805Y-67876931D01*
X81483033Y-67864410D01*
X81521769Y-67856705D01*
X81560504Y-67849000D01*
X81639496Y-67849000D01*
X81678231Y-67856705D01*
X81716967Y-67864410D01*
X81747195Y-67876931D01*
X81789944Y-67894638D01*
X81855622Y-67938523D01*
X81911478Y-67994379D01*
X81921067Y-68008730D01*
X81936613Y-68027672D01*
X81955555Y-68043217D01*
X81977165Y-68054768D01*
X82000614Y-68061881D01*
X82025001Y-68064283D01*
X82049387Y-68061881D01*
X82072836Y-68054768D01*
X82094446Y-68043217D01*
X82113388Y-68027671D01*
X82128933Y-68008730D01*
X82138522Y-67994379D01*
X82194378Y-67938523D01*
X82260056Y-67894638D01*
X82302805Y-67876931D01*
X82333033Y-67864410D01*
X82371769Y-67856705D01*
X82410504Y-67849000D01*
X82489496Y-67849000D01*
X82528231Y-67856705D01*
X82566967Y-67864410D01*
X82597195Y-67876931D01*
X82639944Y-67894638D01*
X82705622Y-67938523D01*
X82761478Y-67994379D01*
X82771067Y-68008730D01*
X82786613Y-68027672D01*
X82805555Y-68043217D01*
X82827165Y-68054768D01*
X82850614Y-68061881D01*
X82875001Y-68064283D01*
X82899387Y-68061881D01*
X82922836Y-68054768D01*
X82944446Y-68043217D01*
X82963388Y-68027671D01*
X82978933Y-68008730D01*
X82988522Y-67994379D01*
X83044378Y-67938523D01*
X83110056Y-67894638D01*
X83152805Y-67876931D01*
X83183033Y-67864410D01*
X83221769Y-67856705D01*
X83260504Y-67849000D01*
X83339496Y-67849000D01*
X83378231Y-67856705D01*
X83416967Y-67864410D01*
X83447195Y-67876931D01*
X83489944Y-67894638D01*
X83555622Y-67938523D01*
X83611478Y-67994379D01*
X83621067Y-68008730D01*
X83636613Y-68027672D01*
X83655555Y-68043217D01*
X83677165Y-68054768D01*
X83700614Y-68061881D01*
X83725001Y-68064283D01*
X83749387Y-68061881D01*
X83772836Y-68054768D01*
X83794446Y-68043217D01*
X83813388Y-68027671D01*
X83828933Y-68008730D01*
X83838522Y-67994379D01*
X83894378Y-67938523D01*
X83960056Y-67894638D01*
X84002805Y-67876931D01*
X84033033Y-67864410D01*
X84071769Y-67856705D01*
X84110504Y-67849000D01*
X84189496Y-67849000D01*
X84228231Y-67856705D01*
X84266967Y-67864410D01*
X84297195Y-67876931D01*
X84339944Y-67894638D01*
X84405622Y-67938523D01*
X84461478Y-67994379D01*
X84471067Y-68008730D01*
X84486613Y-68027672D01*
X84505555Y-68043217D01*
X84527165Y-68054768D01*
X84550614Y-68061881D01*
X84575001Y-68064283D01*
X84599387Y-68061881D01*
X84622836Y-68054768D01*
X84644446Y-68043217D01*
X84663388Y-68027671D01*
X84678933Y-68008730D01*
X84688522Y-67994379D01*
X84744378Y-67938523D01*
X84810056Y-67894638D01*
X84852805Y-67876931D01*
X84883033Y-67864410D01*
X84921769Y-67856705D01*
X84960504Y-67849000D01*
X85039496Y-67849000D01*
X85078231Y-67856705D01*
X85116967Y-67864410D01*
X85147195Y-67876931D01*
X85189944Y-67894638D01*
X85255622Y-67938523D01*
X85311477Y-67994378D01*
X85355362Y-68060056D01*
X85373069Y-68102805D01*
X85385590Y-68133033D01*
X85401000Y-68210505D01*
X85401000Y-68289495D01*
X85385590Y-68366967D01*
X85373069Y-68397195D01*
X85355362Y-68439944D01*
X85311477Y-68505622D01*
X85255622Y-68561477D01*
X85189944Y-68605362D01*
X85147195Y-68623069D01*
X85116967Y-68635590D01*
X85078231Y-68643295D01*
X85039496Y-68651000D01*
X84960504Y-68651000D01*
X84921769Y-68643295D01*
X84883033Y-68635590D01*
X84852805Y-68623069D01*
X84810056Y-68605362D01*
X84744378Y-68561477D01*
X84688522Y-68505621D01*
X84678933Y-68491270D01*
X84663387Y-68472328D01*
X84644445Y-68456783D01*
X84622835Y-68445232D01*
X84599386Y-68438119D01*
X84574999Y-68435717D01*
X84550613Y-68438119D01*
X84527164Y-68445232D01*
X84505554Y-68456783D01*
X84486612Y-68472329D01*
X84471067Y-68491270D01*
X84461478Y-68505621D01*
X84405622Y-68561477D01*
X84339944Y-68605362D01*
X84297195Y-68623069D01*
X84266967Y-68635590D01*
X84228231Y-68643295D01*
X84189496Y-68651000D01*
X84110504Y-68651000D01*
X84071769Y-68643295D01*
X84033033Y-68635590D01*
X84002805Y-68623069D01*
X83960056Y-68605362D01*
X83894378Y-68561477D01*
X83838522Y-68505621D01*
X83828933Y-68491270D01*
X83813387Y-68472328D01*
X83794445Y-68456783D01*
X83772835Y-68445232D01*
X83749386Y-68438119D01*
X83724999Y-68435717D01*
X83700613Y-68438119D01*
X83677164Y-68445232D01*
X83655554Y-68456783D01*
X83636612Y-68472329D01*
X83621067Y-68491270D01*
X83611478Y-68505621D01*
X83555622Y-68561477D01*
X83489944Y-68605362D01*
X83447195Y-68623069D01*
X83416967Y-68635590D01*
X83378231Y-68643295D01*
X83339496Y-68651000D01*
X83260504Y-68651000D01*
X83221769Y-68643295D01*
X83183033Y-68635590D01*
X83152805Y-68623069D01*
X83110056Y-68605362D01*
X83044378Y-68561477D01*
X82988522Y-68505621D01*
X82978933Y-68491270D01*
X82963387Y-68472328D01*
X82944445Y-68456783D01*
X82922835Y-68445232D01*
X82899386Y-68438119D01*
X82874999Y-68435717D01*
X82850613Y-68438119D01*
X82827164Y-68445232D01*
X82805554Y-68456783D01*
X82786612Y-68472329D01*
X82771067Y-68491270D01*
X82761478Y-68505621D01*
X82705622Y-68561477D01*
X82639944Y-68605362D01*
X82597195Y-68623069D01*
X82566967Y-68635590D01*
X82528231Y-68643295D01*
X82489496Y-68651000D01*
X82410504Y-68651000D01*
X82371769Y-68643295D01*
X82333033Y-68635590D01*
X82302805Y-68623069D01*
X82260056Y-68605362D01*
X82194378Y-68561477D01*
X82138522Y-68505621D01*
X82128933Y-68491270D01*
X82113387Y-68472328D01*
X82094445Y-68456783D01*
X82072835Y-68445232D01*
X82049386Y-68438119D01*
X82024999Y-68435717D01*
X82000613Y-68438119D01*
X81977164Y-68445232D01*
X81955554Y-68456783D01*
X81936612Y-68472329D01*
X81921067Y-68491270D01*
X81911478Y-68505621D01*
X81855622Y-68561477D01*
X81789944Y-68605362D01*
X81747195Y-68623069D01*
X81716967Y-68635590D01*
X81678231Y-68643295D01*
X81639496Y-68651000D01*
X81560504Y-68651000D01*
X81521769Y-68643295D01*
X81483033Y-68635590D01*
X81452805Y-68623069D01*
X81410056Y-68605362D01*
X81344378Y-68561477D01*
X81288522Y-68505621D01*
X81278933Y-68491270D01*
X81263387Y-68472328D01*
X81244445Y-68456783D01*
X81222835Y-68445232D01*
X81199386Y-68438119D01*
X81174999Y-68435717D01*
X81150613Y-68438119D01*
X81127164Y-68445232D01*
X81105554Y-68456783D01*
X81086612Y-68472329D01*
X81071067Y-68491270D01*
X81061478Y-68505621D01*
X81005622Y-68561477D01*
X80939944Y-68605362D01*
X80897195Y-68623069D01*
X80866967Y-68635590D01*
X80828231Y-68643295D01*
X80789496Y-68651000D01*
X80710504Y-68651000D01*
X80671769Y-68643295D01*
X80633033Y-68635590D01*
X80602805Y-68623069D01*
X80560056Y-68605362D01*
X80494378Y-68561477D01*
X80438522Y-68505621D01*
X80428933Y-68491270D01*
X80413387Y-68472328D01*
X80394445Y-68456783D01*
X80372835Y-68445232D01*
X80349386Y-68438119D01*
X80324999Y-68435717D01*
X80300613Y-68438119D01*
X80277164Y-68445232D01*
X80255554Y-68456783D01*
X80236612Y-68472329D01*
X80221067Y-68491270D01*
X80211478Y-68505621D01*
X80155622Y-68561477D01*
X80089944Y-68605362D01*
X80047195Y-68623069D01*
X80016967Y-68635590D01*
X79978231Y-68643295D01*
X79939496Y-68651000D01*
X79860504Y-68651000D01*
X79821769Y-68643295D01*
X79783033Y-68635590D01*
X79752805Y-68623069D01*
X79710056Y-68605362D01*
X79644378Y-68561477D01*
X79588522Y-68505621D01*
X79578933Y-68491270D01*
X79563387Y-68472328D01*
X79544445Y-68456783D01*
X79522835Y-68445232D01*
X79499386Y-68438119D01*
X79474999Y-68435717D01*
X79450613Y-68438119D01*
X79427164Y-68445232D01*
X79405554Y-68456783D01*
X79386612Y-68472329D01*
X79371067Y-68491270D01*
X79361478Y-68505621D01*
X79305622Y-68561477D01*
X79239944Y-68605362D01*
X79197195Y-68623069D01*
X79166967Y-68635590D01*
X79128231Y-68643295D01*
X79089496Y-68651000D01*
X79010504Y-68651000D01*
X78971769Y-68643295D01*
X78933033Y-68635590D01*
X78902805Y-68623069D01*
X78860056Y-68605362D01*
X78794378Y-68561477D01*
X78738523Y-68505622D01*
X78694638Y-68439944D01*
X78676931Y-68397195D01*
X78664410Y-68366967D01*
X78649000Y-68289495D01*
X78649000Y-68210505D01*
X78664410Y-68133033D01*
X78676931Y-68102805D01*
X78694638Y-68060056D01*
X78738523Y-67994378D01*
X78794378Y-67938523D01*
X78860056Y-67894638D01*
X78902805Y-67876931D01*
X78933033Y-67864410D01*
X78971769Y-67856705D01*
X79010504Y-67849000D01*
X79089496Y-67849000D01*
X79128231Y-67856705D01*
G37*
G36*
X86448213Y-66026249D02*
G01*
X86542652Y-66054897D01*
X86629687Y-66101418D01*
X86705975Y-66164025D01*
X86768582Y-66240313D01*
X86815103Y-66327348D01*
X86843751Y-66421787D01*
X86851000Y-66495388D01*
X86851000Y-68044612D01*
X86843751Y-68118213D01*
X86815103Y-68212652D01*
X86768582Y-68299687D01*
X86705975Y-68375975D01*
X86629687Y-68438582D01*
X86542651Y-68485103D01*
X86448212Y-68513751D01*
X86350000Y-68523424D01*
X86251787Y-68513751D01*
X86157348Y-68485103D01*
X86070313Y-68438582D01*
X85994025Y-68375975D01*
X85931418Y-68299687D01*
X85884897Y-68212651D01*
X85856249Y-68118212D01*
X85849000Y-68044611D01*
X85849001Y-66495388D01*
X85856250Y-66421787D01*
X85884898Y-66327348D01*
X85931419Y-66240313D01*
X85994026Y-66164025D01*
X86070314Y-66101418D01*
X86157349Y-66054897D01*
X86251788Y-66026249D01*
X86350000Y-66016576D01*
X86448213Y-66026249D01*
G37*
G36*
X77798213Y-66026249D02*
G01*
X77892652Y-66054897D01*
X77979687Y-66101418D01*
X78055975Y-66164025D01*
X78118582Y-66240313D01*
X78165103Y-66327348D01*
X78193751Y-66421787D01*
X78201000Y-66495388D01*
X78201000Y-68044612D01*
X78193751Y-68118213D01*
X78165103Y-68212652D01*
X78118582Y-68299687D01*
X78055975Y-68375975D01*
X77979687Y-68438582D01*
X77892651Y-68485103D01*
X77798212Y-68513751D01*
X77700000Y-68523424D01*
X77601787Y-68513751D01*
X77507348Y-68485103D01*
X77420313Y-68438582D01*
X77344025Y-68375975D01*
X77281418Y-68299687D01*
X77234897Y-68212651D01*
X77206249Y-68118212D01*
X77199000Y-68044611D01*
X77199001Y-66495388D01*
X77206250Y-66421787D01*
X77234898Y-66327348D01*
X77281419Y-66240313D01*
X77344026Y-66164025D01*
X77420314Y-66101418D01*
X77507349Y-66054897D01*
X77601788Y-66026249D01*
X77700000Y-66016576D01*
X77798213Y-66026249D01*
G37*
G36*
X69379487Y-65748996D02*
G01*
X69616253Y-65847068D01*
X69616255Y-65847069D01*
X69829339Y-65989447D01*
X70010553Y-66170661D01*
X70152932Y-66383747D01*
X70251004Y-66620513D01*
X70301000Y-66871861D01*
X70301000Y-67128139D01*
X70251004Y-67379487D01*
X70152932Y-67616253D01*
X70152931Y-67616255D01*
X70010553Y-67829339D01*
X69829339Y-68010553D01*
X69616255Y-68152931D01*
X69616254Y-68152932D01*
X69616253Y-68152932D01*
X69379487Y-68251004D01*
X69128139Y-68301000D01*
X68871861Y-68301000D01*
X68620513Y-68251004D01*
X68383747Y-68152932D01*
X68383746Y-68152932D01*
X68383745Y-68152931D01*
X68170661Y-68010553D01*
X67989447Y-67829339D01*
X67847069Y-67616255D01*
X67847068Y-67616253D01*
X67748996Y-67379487D01*
X67699000Y-67128139D01*
X67699000Y-66871861D01*
X67748996Y-66620513D01*
X67847068Y-66383747D01*
X67989447Y-66170661D01*
X68170661Y-65989447D01*
X68383745Y-65847069D01*
X68383747Y-65847068D01*
X68620513Y-65748996D01*
X68871861Y-65699000D01*
X69128139Y-65699000D01*
X69379487Y-65748996D01*
G37*
G36*
X145379487Y-65748996D02*
G01*
X145616253Y-65847068D01*
X145616255Y-65847069D01*
X145829339Y-65989447D01*
X146010553Y-66170661D01*
X146152932Y-66383747D01*
X146251004Y-66620513D01*
X146301000Y-66871861D01*
X146301000Y-67128139D01*
X146251004Y-67379487D01*
X146152932Y-67616253D01*
X146152931Y-67616255D01*
X146010553Y-67829339D01*
X145829339Y-68010553D01*
X145616255Y-68152931D01*
X145616254Y-68152932D01*
X145616253Y-68152932D01*
X145379487Y-68251004D01*
X145128139Y-68301000D01*
X144871861Y-68301000D01*
X144620513Y-68251004D01*
X144383747Y-68152932D01*
X144383746Y-68152932D01*
X144383745Y-68152931D01*
X144170661Y-68010553D01*
X143989447Y-67829339D01*
X143847069Y-67616255D01*
X143847068Y-67616253D01*
X143748996Y-67379487D01*
X143699000Y-67128139D01*
X143699000Y-66871861D01*
X143748996Y-66620513D01*
X143847068Y-66383747D01*
X143989447Y-66170661D01*
X144170661Y-65989447D01*
X144383745Y-65847069D01*
X144383747Y-65847068D01*
X144620513Y-65748996D01*
X144871861Y-65699000D01*
X145128139Y-65699000D01*
X145379487Y-65748996D01*
G37*
G36*
X79128231Y-66506705D02*
G01*
X79166967Y-66514410D01*
X79197195Y-66526931D01*
X79239944Y-66544638D01*
X79305622Y-66588523D01*
X79361478Y-66644379D01*
X79371067Y-66658730D01*
X79386613Y-66677672D01*
X79405555Y-66693217D01*
X79427165Y-66704768D01*
X79450614Y-66711881D01*
X79475001Y-66714283D01*
X79499387Y-66711881D01*
X79522836Y-66704768D01*
X79544446Y-66693217D01*
X79563388Y-66677671D01*
X79578933Y-66658730D01*
X79588522Y-66644379D01*
X79644378Y-66588523D01*
X79710056Y-66544638D01*
X79752805Y-66526931D01*
X79783033Y-66514410D01*
X79821769Y-66506705D01*
X79860504Y-66499000D01*
X79939496Y-66499000D01*
X79978231Y-66506705D01*
X80016967Y-66514410D01*
X80047195Y-66526931D01*
X80089944Y-66544638D01*
X80155622Y-66588523D01*
X80211478Y-66644379D01*
X80221067Y-66658730D01*
X80236613Y-66677672D01*
X80255555Y-66693217D01*
X80277165Y-66704768D01*
X80300614Y-66711881D01*
X80325001Y-66714283D01*
X80349387Y-66711881D01*
X80372836Y-66704768D01*
X80394446Y-66693217D01*
X80413388Y-66677671D01*
X80428933Y-66658730D01*
X80438522Y-66644379D01*
X80494378Y-66588523D01*
X80560056Y-66544638D01*
X80602805Y-66526931D01*
X80633033Y-66514410D01*
X80671769Y-66506705D01*
X80710504Y-66499000D01*
X80789496Y-66499000D01*
X80828231Y-66506705D01*
X80866967Y-66514410D01*
X80897195Y-66526931D01*
X80939944Y-66544638D01*
X81005622Y-66588523D01*
X81061478Y-66644379D01*
X81071067Y-66658730D01*
X81086613Y-66677672D01*
X81105555Y-66693217D01*
X81127165Y-66704768D01*
X81150614Y-66711881D01*
X81175001Y-66714283D01*
X81199387Y-66711881D01*
X81222836Y-66704768D01*
X81244446Y-66693217D01*
X81263388Y-66677671D01*
X81278933Y-66658730D01*
X81288522Y-66644379D01*
X81344378Y-66588523D01*
X81410056Y-66544638D01*
X81452805Y-66526931D01*
X81483033Y-66514410D01*
X81521769Y-66506705D01*
X81560504Y-66499000D01*
X81639496Y-66499000D01*
X81678231Y-66506705D01*
X81716967Y-66514410D01*
X81747195Y-66526931D01*
X81789944Y-66544638D01*
X81855622Y-66588523D01*
X81911478Y-66644379D01*
X81921067Y-66658730D01*
X81936613Y-66677672D01*
X81955555Y-66693217D01*
X81977165Y-66704768D01*
X82000614Y-66711881D01*
X82025001Y-66714283D01*
X82049387Y-66711881D01*
X82072836Y-66704768D01*
X82094446Y-66693217D01*
X82113388Y-66677671D01*
X82128933Y-66658730D01*
X82138522Y-66644379D01*
X82194378Y-66588523D01*
X82260056Y-66544638D01*
X82302805Y-66526931D01*
X82333033Y-66514410D01*
X82371769Y-66506705D01*
X82410504Y-66499000D01*
X82489496Y-66499000D01*
X82528231Y-66506705D01*
X82566967Y-66514410D01*
X82597195Y-66526931D01*
X82639944Y-66544638D01*
X82705622Y-66588523D01*
X82761478Y-66644379D01*
X82771067Y-66658730D01*
X82786613Y-66677672D01*
X82805555Y-66693217D01*
X82827165Y-66704768D01*
X82850614Y-66711881D01*
X82875001Y-66714283D01*
X82899387Y-66711881D01*
X82922836Y-66704768D01*
X82944446Y-66693217D01*
X82963388Y-66677671D01*
X82978933Y-66658730D01*
X82988522Y-66644379D01*
X83044378Y-66588523D01*
X83110056Y-66544638D01*
X83152805Y-66526931D01*
X83183033Y-66514410D01*
X83221769Y-66506705D01*
X83260504Y-66499000D01*
X83339496Y-66499000D01*
X83378231Y-66506705D01*
X83416967Y-66514410D01*
X83447195Y-66526931D01*
X83489944Y-66544638D01*
X83555622Y-66588523D01*
X83611478Y-66644379D01*
X83621067Y-66658730D01*
X83636613Y-66677672D01*
X83655555Y-66693217D01*
X83677165Y-66704768D01*
X83700614Y-66711881D01*
X83725001Y-66714283D01*
X83749387Y-66711881D01*
X83772836Y-66704768D01*
X83794446Y-66693217D01*
X83813388Y-66677671D01*
X83828933Y-66658730D01*
X83838522Y-66644379D01*
X83894378Y-66588523D01*
X83960056Y-66544638D01*
X84002805Y-66526931D01*
X84033033Y-66514410D01*
X84071769Y-66506705D01*
X84110504Y-66499000D01*
X84189496Y-66499000D01*
X84228231Y-66506705D01*
X84266967Y-66514410D01*
X84297195Y-66526931D01*
X84339944Y-66544638D01*
X84405622Y-66588523D01*
X84461478Y-66644379D01*
X84471067Y-66658730D01*
X84486613Y-66677672D01*
X84505555Y-66693217D01*
X84527165Y-66704768D01*
X84550614Y-66711881D01*
X84575001Y-66714283D01*
X84599387Y-66711881D01*
X84622836Y-66704768D01*
X84644446Y-66693217D01*
X84663388Y-66677671D01*
X84678933Y-66658730D01*
X84688522Y-66644379D01*
X84744378Y-66588523D01*
X84810056Y-66544638D01*
X84852805Y-66526931D01*
X84883033Y-66514410D01*
X84921769Y-66506705D01*
X84960504Y-66499000D01*
X85039496Y-66499000D01*
X85078231Y-66506705D01*
X85116967Y-66514410D01*
X85147195Y-66526931D01*
X85189944Y-66544638D01*
X85255622Y-66588523D01*
X85311477Y-66644378D01*
X85355362Y-66710056D01*
X85385590Y-66783034D01*
X85401000Y-66860504D01*
X85401000Y-66939496D01*
X85385590Y-67016966D01*
X85355362Y-67089944D01*
X85311477Y-67155622D01*
X85255622Y-67211477D01*
X85189944Y-67255362D01*
X85147195Y-67273069D01*
X85116967Y-67285590D01*
X85078231Y-67293295D01*
X85039496Y-67301000D01*
X84960504Y-67301000D01*
X84921769Y-67293295D01*
X84883033Y-67285590D01*
X84852805Y-67273069D01*
X84810056Y-67255362D01*
X84744378Y-67211477D01*
X84688522Y-67155621D01*
X84678933Y-67141270D01*
X84663387Y-67122328D01*
X84644445Y-67106783D01*
X84622835Y-67095232D01*
X84599386Y-67088119D01*
X84574999Y-67085717D01*
X84550613Y-67088119D01*
X84527164Y-67095232D01*
X84505554Y-67106783D01*
X84486612Y-67122329D01*
X84471067Y-67141270D01*
X84461478Y-67155621D01*
X84405622Y-67211477D01*
X84339944Y-67255362D01*
X84297195Y-67273069D01*
X84266967Y-67285590D01*
X84228231Y-67293295D01*
X84189496Y-67301000D01*
X84110504Y-67301000D01*
X84071769Y-67293295D01*
X84033033Y-67285590D01*
X84002805Y-67273069D01*
X83960056Y-67255362D01*
X83894378Y-67211477D01*
X83838522Y-67155621D01*
X83828933Y-67141270D01*
X83813387Y-67122328D01*
X83794445Y-67106783D01*
X83772835Y-67095232D01*
X83749386Y-67088119D01*
X83724999Y-67085717D01*
X83700613Y-67088119D01*
X83677164Y-67095232D01*
X83655554Y-67106783D01*
X83636612Y-67122329D01*
X83621067Y-67141270D01*
X83611478Y-67155621D01*
X83555622Y-67211477D01*
X83489944Y-67255362D01*
X83447195Y-67273069D01*
X83416967Y-67285590D01*
X83378231Y-67293295D01*
X83339496Y-67301000D01*
X83260504Y-67301000D01*
X83221769Y-67293295D01*
X83183033Y-67285590D01*
X83152805Y-67273069D01*
X83110056Y-67255362D01*
X83044378Y-67211477D01*
X82988522Y-67155621D01*
X82978933Y-67141270D01*
X82963387Y-67122328D01*
X82944445Y-67106783D01*
X82922835Y-67095232D01*
X82899386Y-67088119D01*
X82874999Y-67085717D01*
X82850613Y-67088119D01*
X82827164Y-67095232D01*
X82805554Y-67106783D01*
X82786612Y-67122329D01*
X82771067Y-67141270D01*
X82761478Y-67155621D01*
X82705622Y-67211477D01*
X82639944Y-67255362D01*
X82597195Y-67273069D01*
X82566967Y-67285590D01*
X82528231Y-67293295D01*
X82489496Y-67301000D01*
X82410504Y-67301000D01*
X82371769Y-67293295D01*
X82333033Y-67285590D01*
X82302805Y-67273069D01*
X82260056Y-67255362D01*
X82194378Y-67211477D01*
X82138522Y-67155621D01*
X82128933Y-67141270D01*
X82113387Y-67122328D01*
X82094445Y-67106783D01*
X82072835Y-67095232D01*
X82049386Y-67088119D01*
X82024999Y-67085717D01*
X82000613Y-67088119D01*
X81977164Y-67095232D01*
X81955554Y-67106783D01*
X81936612Y-67122329D01*
X81921067Y-67141270D01*
X81911478Y-67155621D01*
X81855622Y-67211477D01*
X81789944Y-67255362D01*
X81747195Y-67273069D01*
X81716967Y-67285590D01*
X81678231Y-67293295D01*
X81639496Y-67301000D01*
X81560504Y-67301000D01*
X81521769Y-67293295D01*
X81483033Y-67285590D01*
X81452805Y-67273069D01*
X81410056Y-67255362D01*
X81344378Y-67211477D01*
X81288522Y-67155621D01*
X81278933Y-67141270D01*
X81263387Y-67122328D01*
X81244445Y-67106783D01*
X81222835Y-67095232D01*
X81199386Y-67088119D01*
X81174999Y-67085717D01*
X81150613Y-67088119D01*
X81127164Y-67095232D01*
X81105554Y-67106783D01*
X81086612Y-67122329D01*
X81071067Y-67141270D01*
X81061478Y-67155621D01*
X81005622Y-67211477D01*
X80939944Y-67255362D01*
X80897195Y-67273069D01*
X80866967Y-67285590D01*
X80828231Y-67293295D01*
X80789496Y-67301000D01*
X80710504Y-67301000D01*
X80671769Y-67293295D01*
X80633033Y-67285590D01*
X80602805Y-67273069D01*
X80560056Y-67255362D01*
X80494378Y-67211477D01*
X80438522Y-67155621D01*
X80428933Y-67141270D01*
X80413387Y-67122328D01*
X80394445Y-67106783D01*
X80372835Y-67095232D01*
X80349386Y-67088119D01*
X80324999Y-67085717D01*
X80300613Y-67088119D01*
X80277164Y-67095232D01*
X80255554Y-67106783D01*
X80236612Y-67122329D01*
X80221067Y-67141270D01*
X80211478Y-67155621D01*
X80155622Y-67211477D01*
X80089944Y-67255362D01*
X80047195Y-67273069D01*
X80016967Y-67285590D01*
X79978231Y-67293295D01*
X79939496Y-67301000D01*
X79860504Y-67301000D01*
X79821769Y-67293295D01*
X79783033Y-67285590D01*
X79752805Y-67273069D01*
X79710056Y-67255362D01*
X79644378Y-67211477D01*
X79588522Y-67155621D01*
X79578933Y-67141270D01*
X79563387Y-67122328D01*
X79544445Y-67106783D01*
X79522835Y-67095232D01*
X79499386Y-67088119D01*
X79474999Y-67085717D01*
X79450613Y-67088119D01*
X79427164Y-67095232D01*
X79405554Y-67106783D01*
X79386612Y-67122329D01*
X79371067Y-67141270D01*
X79361478Y-67155621D01*
X79305622Y-67211477D01*
X79239944Y-67255362D01*
X79197195Y-67273069D01*
X79166967Y-67285590D01*
X79128231Y-67293295D01*
X79089496Y-67301000D01*
X79010504Y-67301000D01*
X78971769Y-67293295D01*
X78933033Y-67285590D01*
X78902805Y-67273069D01*
X78860056Y-67255362D01*
X78794378Y-67211477D01*
X78738523Y-67155622D01*
X78694638Y-67089944D01*
X78664410Y-67016966D01*
X78649000Y-66939496D01*
X78649000Y-66860504D01*
X78664410Y-66783034D01*
X78694638Y-66710056D01*
X78738523Y-66644378D01*
X78794378Y-66588523D01*
X78860056Y-66544638D01*
X78902805Y-66526931D01*
X78933033Y-66514410D01*
X78971769Y-66506705D01*
X79010504Y-66499000D01*
X79089496Y-66499000D01*
X79128231Y-66506705D01*
G37*
G36*
X57751000Y-66371000D02*
G01*
X54649000Y-66371000D01*
X54649000Y-63269000D01*
X57751000Y-63269000D01*
X57751000Y-66371000D01*
G37*
G36*
X86448213Y-62996249D02*
G01*
X86542652Y-63024897D01*
X86629687Y-63071418D01*
X86705975Y-63134025D01*
X86768582Y-63210313D01*
X86815103Y-63297348D01*
X86843751Y-63391787D01*
X86851000Y-63465388D01*
X86851000Y-64314612D01*
X86843751Y-64388213D01*
X86815103Y-64482652D01*
X86768582Y-64569687D01*
X86705975Y-64645975D01*
X86629687Y-64708582D01*
X86542651Y-64755103D01*
X86448212Y-64783751D01*
X86350000Y-64793424D01*
X86251787Y-64783751D01*
X86157348Y-64755103D01*
X86070313Y-64708582D01*
X85994025Y-64645975D01*
X85931418Y-64569687D01*
X85884897Y-64482651D01*
X85856249Y-64388212D01*
X85849000Y-64314611D01*
X85849000Y-63465398D01*
X85856250Y-63391786D01*
X85866846Y-63356856D01*
X85884898Y-63297348D01*
X85931419Y-63210313D01*
X85994026Y-63134025D01*
X86070314Y-63071418D01*
X86157349Y-63024897D01*
X86251788Y-62996249D01*
X86350000Y-62986576D01*
X86448213Y-62996249D01*
G37*
G36*
X77798213Y-62996249D02*
G01*
X77892652Y-63024897D01*
X77979687Y-63071418D01*
X78055975Y-63134025D01*
X78118582Y-63210313D01*
X78165103Y-63297348D01*
X78193751Y-63391787D01*
X78201000Y-63465388D01*
X78201000Y-64314612D01*
X78193751Y-64388213D01*
X78165103Y-64482652D01*
X78118582Y-64569687D01*
X78055975Y-64645975D01*
X77979687Y-64708582D01*
X77892651Y-64755103D01*
X77798212Y-64783751D01*
X77700000Y-64793424D01*
X77601787Y-64783751D01*
X77507348Y-64755103D01*
X77420313Y-64708582D01*
X77344025Y-64645975D01*
X77281418Y-64569687D01*
X77234897Y-64482651D01*
X77206249Y-64388212D01*
X77199000Y-64314611D01*
X77199000Y-63465398D01*
X77206250Y-63391786D01*
X77216846Y-63356856D01*
X77234898Y-63297348D01*
X77281419Y-63210313D01*
X77344026Y-63134025D01*
X77420314Y-63071418D01*
X77507349Y-63024897D01*
X77601788Y-62996249D01*
X77700000Y-62986576D01*
X77798213Y-62996249D01*
G37*
M02*
