M48
INCH,TZ
T1C0.0157
T2C0.0236
T3C0.0394
T4C0.0598
T5C0.0701
%
G90
G05
T1
X22244Y-44980
X22244Y-45374
X22244Y-45768
X24228Y-45335
X24228Y-45335
X24228Y-45335
X24228Y-45850
X24311Y-29232
X28543Y-45177
X28937Y-27067
X29528Y-32283
X29528Y-34646
X29528Y-37008
X29921Y-39370
X30709Y-41339
X30709Y-43307
X31791Y-27657
X31791Y-29035
X33622Y-33346
X33701Y-41102
X34055Y-38780
X34350Y-30020
X34646Y-27520
X34744Y-30020
X35433Y-30709
X36220Y-39764
X37402Y-29921
X37795Y-32283
X37795Y-34646
X37795Y-37008
X38878Y-39173
X40197Y-43386
X41102Y-42362
X41334Y-32682
X41339Y-30217
X41339Y-35039
X41339Y-37402
X44331Y-44764
X44843Y-33543
X45157Y-31299
X50039Y-42244
X50300Y-39365
X50787Y-42028
X50787Y-44724
X51870Y-31791
X52461Y-35827
X52461Y-36417
X52953Y-35827
X53543Y-35827
X54232Y-35827
X54921Y-35827
X55512Y-35827
X55906Y-35827
X55906Y-39665
X56398Y-40354
X56496Y-31594
X56496Y-39764
X56791Y-32874
X56850Y-44724
X57244Y-27520
X57382Y-35925
X57918Y-42367
X58543Y-39370
X31122Y-26339
X31122Y-26870
X31457Y-26339
X31457Y-26870
X31791Y-26339
X31791Y-26870
X32126Y-26339
X32126Y-26870
X32461Y-26339
X32461Y-26870
X32795Y-26339
X32795Y-26870
X33130Y-26339
X33130Y-26870
X33465Y-26339
X33465Y-26870
T3
X54724Y-37205
X54724Y-37795
X54724Y-38386
X55315Y-37205
X55315Y-37795
X55315Y-38386
X55906Y-37205
X55906Y-37795
X55906Y-38386
X55579Y-46850
X56579Y-46850
X57579Y-46850
X51642Y-46850
X52642Y-46850
X53642Y-46850
X35909Y-46850
X36909Y-46850
X37909Y-46850
X39846Y-46850
X40846Y-46850
X41846Y-46850
X28035Y-46850
X29035Y-46850
X30035Y-46850
X31972Y-46850
X32972Y-46850
X33972Y-46850
X37402Y-40354
X38402Y-40354
X39402Y-40354
X40402Y-40354
X41402Y-40354
X47705Y-46850
X48705Y-46850
X49705Y-46850
X43783Y-46850
X44783Y-46850
X45783Y-46850
T4
X22126Y-25520
X22126Y-27520
X22126Y-29520
X22126Y-31520
T5
X21654Y-34283
X21654Y-38189
X22992Y-34283
X22992Y-38189
T2
G00X30591Y-25311
M15
G01X30591Y-24996
M16
G05
G00X30591Y-26780
M15
G01X30591Y-26189
M16
G05
G00X33996Y-25311
M15
G01X33996Y-24996
M16
G05
G00X33996Y-26780
M15
G01X33996Y-26189
M16
G05
T0
M30
